<?xml version="1.0" encoding="utf-8"?>
<!-- Generator: Adobe Illustrator 28.0.0, SVG Export Plug-In . SVG Version: 6.00 Build 0)  -->
<svg version="1.1" id="Layer_1" xmlns="http://www.w3.org/2000/svg" xmlns:xlink="http://www.w3.org/1999/xlink" x="0px" y="0px"
	 viewBox="0 0 1920 1080" style="enable-background:new 0 0 1920 1080;" xml:space="preserve">
<style type="text/css">
	.st0{fill:#FEFEFE; opacity: 0;}
	.st1{fill:#55594B;}
	.st2{fill:#414233;}
	.st3{fill:#525645;}
	.st4{fill:#5B5857;}
	.st5{fill:#625F5D;}
	.st6{fill:#AAA19C;}
	.st7{fill:#546326;}
	.st8{fill:#3F412F;}
	.st9{fill:#173432;}
	.st10{fill:#163331;}
	.st11{fill:#193533;}
	.st12{fill:#183432;}
	.st13{fill:#9F9894;}
</style>
<g>
	<path class="st0" d="M1211,615c-167,0-334,0-501,0c0-50,0-100,0-150c167,0,334,0,501,0C1211,515,1211,565,1211,615z
		 M1151.59,581.07c0.42-0.48,0.85-0.96,1.27-1.43c13.87,0,27.74,0,41.82,0c0-26.73,0-53.08,0-79.43c-1.43-0.66-2.84-1.85-4.29-1.9
		c-6.32-0.21-12.66-0.09-18.99-0.09c-6.44,0-12.88,0-19.25,0c-0.25-2.61-0.43-4.54-0.66-7c-2.22,0-4.17,0-6.13,0
		c-121.47,0-242.95,0.02-364.42-0.06c-5.35,0-10.56-0.7-10.53,7c0,0.1-0.25,0.19-0.39,0.29c-12.65-0.08-25.31-0.01-37.96-0.34
		c-4.17-0.11-4.97,1.5-4.95,5.23c0.13,23.83,0.06,47.65,0.08,71.48c0,1.59,0.2,3.19,0.33,5.14c14.87,0,29.18,0,43.49,0
		c1.42,1.87-1.93,5.51,2.35,6.32c1.78,0.2,3.56,0.57,5.34,0.57c121.85,0.03,243.71,0.03,365.56,0c1.78,0,3.56-0.38,5.34-0.58
		c0.58-0.53,1.17-1.06,1.75-1.59C1151.44,583.46,1151.51,582.27,1151.59,581.07z"/>
	<path class="st1" d="M770.03,498.44c0.14-0.1,0.39-0.19,0.39-0.29c-0.04-7.7,5.18-7,10.53-7c121.47,0.08,242.95,0.06,364.42,0.06
		c1.96,0,3.91,0,6.13,0c0.23,2.46,0.42,4.39,0.66,7c6.37,0,12.81,0,19.25,0c6.33,0,12.67-0.12,18.99,0.09
		c1.45,0.05,2.86,1.24,4.29,1.9c-0.62-0.03-1.25-0.06-1.87-0.08c-13.43,0-26.86,0-40.85,0c1.77,7.39-2.69,6.94-7.36,6.94
		c-121.04-0.06-242.07-0.05-363.11-0.06c-3.15,0-6.58,0.5-9.32-0.61c-1.37-0.55-1.47-4.23-2.15-6.49
		C770.02,499.41,770.02,498.93,770.03,498.44z M774.85,505.07c1.74,0.33,3.48,0.94,5.21,0.94c120.96,0.04,241.91,0.04,362.87,0
		c1.74,0,3.48-0.61,5.21-0.94c3.95-2.93,1.28-6.98,1.48-10.49c0.03-0.43-3.54-1.56-5.44-1.56c-121.79-0.08-243.58-0.08-365.38,0
		c-1.9,0-5.47,1.12-5.44,1.56C773.57,498.08,770.9,502.14,774.85,505.07z"/>
	<path class="st2" d="M773.38,586.26c-4.28-0.8-0.93-4.45-2.35-6.32c-0.02-0.67-0.05-1.35-0.07-2.02c0.39-6.79,0.39-6.79,7.28-6.79
		c122.35,0,244.69,0,367.04,0c2.09,0,4.17,0,6.36,0c0.19,2.79,0.32,4.77,0.46,6.75c0.26,0.58,0.51,1.17,0.77,1.75
		c-0.42,0.48-0.85,0.96-1.27,1.43c-0.07,1.2-0.15,2.4-0.22,3.6c-0.58,0.53-1.17,1.06-1.75,1.59c-2.16-0.09-4.32-0.26-6.48-0.26
		c-121.09-0.01-242.19-0.01-363.28,0C777.7,585.99,775.54,586.17,773.38,586.26z M773.45,573.02c-1.3,11.97-1.3,11.97,9.42,11.97
		c119.94,0,239.88,0,359.82,0c1.5,0,3.02,0.13,4.49-0.06c0.88-0.11,2.4-0.67,2.43-1.12c0.23-3.13,0.58-6.39-0.11-9.37
		c-0.2-0.86-3.66-1.36-5.62-1.36c-121.61-0.06-243.21-0.06-364.82-0.06C777.28,573.02,775.49,573.02,773.45,573.02z"/>
	<path class="st3" d="M773.38,586.26c2.16-0.09,4.32-0.27,6.48-0.27c121.09-0.01,242.19-0.01,363.28,0c2.16,0,4.32,0.17,6.48,0.26
		c-1.78,0.2-3.56,0.58-5.34,0.58c-121.85,0.03-243.71,0.03-365.56,0C776.94,586.83,775.16,586.46,773.38,586.26z"/>
	<path class="st4" d="M770.96,577.93c0.02,0.67,0.05,1.35,0.07,2.02c-14.31,0-28.63,0-43.49,0c-0.13-1.95-0.33-3.55-0.33-5.14
		c-0.02-23.83,0.05-47.65-0.08-71.48c-0.02-3.73,0.78-5.34,4.95-5.23c12.65,0.34,25.31,0.26,37.96,0.34c0,0.49-0.01,0.97-0.01,1.46
		c-13.56,0-27.12,0-40.67,0c0,26.5,0,52.04,0,78.03C743.42,577.93,757.19,577.93,770.96,577.93z"/>
	<path class="st5" d="M1152.86,579.63c-0.26-0.58-0.51-1.17-0.77-1.75c13.44,0,26.88,0,40.71,0c0-26.25,0-52.01,0-77.77
		c0.62,0.03,1.25,0.06,1.87,0.08c0,26.35,0,52.7,0,79.43C1180.6,579.63,1166.73,579.63,1152.86,579.63z"/>
	<path class="st3" d="M1151.37,584.66c0.07-1.2,0.15-2.4,0.22-3.6C1151.51,582.27,1151.44,583.46,1151.37,584.66z"/>
	<path class="st6" d="M1192.8,500.12c0,25.76,0,51.52,0,77.77c-13.84,0-27.27,0-40.71,0c-0.13-1.98-0.27-3.95-0.46-6.75
		c-2.19,0-4.27,0-6.36,0c-122.35,0-244.69,0-367.04,0c-6.89,0-6.89,0-7.28,6.79c-13.77,0-27.53,0-41.61,0c0-25.98,0-51.53,0-78.03
		c13.55,0,27.11,0,40.67,0c0.68,2.26,0.78,5.94,2.15,6.49c2.74,1.11,6.17,0.61,9.32,0.61c121.04,0.02,242.07,0,363.11,0.06
		c4.67,0,9.13,0.45,7.36-6.94C1165.94,500.12,1179.37,500.12,1192.8,500.12z M776.84,537.93c0.38,0.12,0.76,0.23,1.14,0.35
		c0,7.08,0,14.17,0,21.3c3.61,0,6.81,0,9.9,0c0-14,0-27.59,0-41.13c-10.24-1.26-10.24-1.26-14.9,7.25
		c-2.53,4.62-5.07,9.23-7.98,14.53c-3.05-5.56-5.77-10.44-8.42-15.36c-4.14-7.69-5.42-8.26-14.54-6.15c0,13.57,0,27.16,0,40.89
		c3.49,0,6.7,0,10.32,0c0-7.42,0-14.46,0-21.51c2.48,2.77,4.32,5.68,5.84,8.74c1.43,2.87,2.98,4.59,6.74,4.56
		c3.69-0.02,5.36-1.54,6.79-4.48C773.25,543.84,775.13,540.92,776.84,537.93z M1170.77,518.25c0,4.74,0.23,8.92-0.14,13.04
		c-0.11,1.23-2.02,3.41-2.85,3.29c-4.16-0.58-8.96,2.44-12.41-1.82c-0.58-0.71-0.14-2.27-0.15-3.43c-0.01-3.61,0-7.23,0-10.92
		c-3.8,0-7,0-10.12,0c0,13.99,0,27.57,0,41.31c3.42,0,6.5,0,10.21,0c0-5.64,0-11.03,0-16.45c5.4,0,10.16,0,15.57,0
		c0,5.64,0,11.02,0,16.38c3.73,0,6.8,0,9.78,0c0-14.05,0-27.76,0-41.4C1177.28,518.25,1174.33,518.25,1170.77,518.25z M791.49,560
		c3.4,0,5.96,0.37,8.34-0.13c1.56-0.33,3.73-1.66,4.1-2.97c1.13-4.02,3.45-5.21,7.32-4.71c1.96,0.25,4.1-0.37,5.94,0.16
		c1.73,0.5,4.12,1.7,4.56,3.1c1.14,3.67,3,5.14,6.79,4.59c1.92-0.28,3.91-0.05,6.54-0.05c-4.64-12.3-9.38-23.96-13.37-35.87
		c-1.68-5.02-4.18-7.19-9.24-6.09c-2,0.43-5.1,0.88-5.63,2.17C801.58,533.08,796.76,546.13,791.49,560z M1029.09,560
		c-4.98-13.14-9.92-25.62-14.36-38.27c-1.37-3.92-3.81-3.93-6.89-3.73c-3.07,0.2-6.35-1.09-7.95,3.57
		c-4.05,11.77-8.68,23.34-13.05,35c-0.37,0.98-0.54,2.02-0.91,3.43c3,0,5.56,0.37,7.93-0.13c1.55-0.33,3.71-1.69,4.08-3.01
		c1.13-4.07,3.54-5.14,7.35-4.66c1.8,0.23,3.67,0.2,5.48,0c2.97-0.33,4.82,0.69,5.32,3.74c0.57,3.49,2.65,4.54,6.01,4.12
		C1024.18,559.78,1026.31,560,1029.09,560z M907.59,526.23c0-3.25,0-5.63,0-7.81c-11.13,0-21.85,0-32.48,0c0,13.99,0,27.56,0,41.27
		c11.05,0,21.78,0,32.57,0c0-2.71,0-5.11,0-7.92c-5.45,0-10.57,0-15.7,0c-7.45,0-8.01-0.8-5.83-8.99c5.44,0,11.02,0,16.48,0
		c0-2.92,0-5.32,0-8.01c-4.19,0-8-0.05-11.82,0.02c-3.13,0.06-5.78,0.39-5.73-4.41c0.05-5,3.07-4.14,5.97-4.15
		C896.49,526.21,901.95,526.23,907.59,526.23z M1102.8,518.35c-11.22,0-21.95,0-32.77,0c0,13.92,0,27.5,0,41.22
		c11.1,0,21.94,0,32.7,0c0-2.7,0-4.98,0-7.8c-6.19,0-12.14-0.18-18.08,0.07c-3.59,0.15-4.88-1.21-4.44-4.62
		c0.17-1.27,0.23-2.55,0.39-4.31c5.84,0,11.42,0,17.07,0c0-2.91,0-5.31,0-8.14c-4.43,0-8.57-0.13-12.69,0.04
		c-3.15,0.14-4.91-0.4-4.88-4.25c0.02-3.68,1.44-4.51,4.76-4.4c5.92,0.2,11.84,0.06,17.94,0.06
		C1102.8,523.24,1102.8,520.96,1102.8,518.35z M949.35,559.99c-3.43-6.28-6.2-11.77-9.37-17.01c-1.86-3.07-1.98-5.47,0.05-8.6
		c3.31-5.08,6.05-10.53,9.35-16.39c-2.02,0-3.19,0.17-4.3-0.03c-5.17-0.91-8.35,1.13-10.27,6.02c-1.21,3.06-2.96,6-4.95,8.63
		c-0.88,1.16-2.98,1.93-4.49,1.87c-0.75-0.03-1.94-2.28-2.03-3.58c-0.26-4.1-0.1-8.24-0.1-12.55c-3.72,0-6.93,0-10.19,0
		c0,13.94,0,27.53,0,41.26c3.49,0,6.7,0,10.32,0c0-5.66,0-10.94,0-16.06c4.1-1.49,6.24-0.12,7.79,3.42
		c1.59,3.64,3.62,7.13,5.77,10.48c0.74,1.16,2.36,2.23,3.71,2.43C943.2,560.26,945.88,559.99,949.35,559.99z M984.75,518.32
		c-10.99,0-22.03,0-33.17,0c0,2.73,0,5.12,0,8.15c6.72,0,13.09,0,20.6,0c-6.4,7.71-11.8,14.65-17.69,21.15
		c-3.31,3.65-3.85,7.43-2.84,12.04c11.15,0,22.19,0,33.16,0c0-2.75,0-5.14,0-8.12c-6.75,0-13.11,0-20.44,0
		c6.12-7.35,11.35-14.01,17.02-20.28C984.85,527.45,986.15,523.47,984.75,518.32z M1139.79,552.22c-6.1,0-11.74-0.14-17.36,0.05
		c-3.75,0.13-5.56-1.06-5.38-5.1c0.23-5.14,0.21-10.31,0.01-15.46c-0.17-4.18,1.67-5.64,5.66-5.52c5.6,0.17,11.2,0.04,17,0.04
		c0-2.99,0-5.38,0-8.04c-8.21,0-16.17-0.33-24.08,0.11c-5.55,0.31-8.57,3.43-8.72,8.47c-0.26,8.47-0.18,16.96-0.03,25.43
		c0.08,4.14,2.47,7.42,6.51,7.65c8.71,0.48,17.46,0.15,26.39,0.15C1139.79,556.61,1139.79,554.5,1139.79,552.22z M1064.95,518.41
		c-11.86,0-23.39,0-34.89,0c0,2.69,0,4.96,0,7.55c4.13,0.2,8,0.39,12.26,0.6c0,11.34,0,22.12,0,33.03c3.79,0,7.14,0,10.83,0
		c0-11.19,0-21.98,0-33.36c4.07,0,7.8,0,11.8,0C1064.95,523.37,1064.95,521.09,1064.95,518.41z M838.18,518.17
		c0,14.15,0,27.84,0,41.48c10.81,0,21.21,0,31.54,0c0-2.74,0-5.14,0-7.88c-4.18,0-7.99,0-11.79,0c-9.7,0-9.7,0-9.7-9.75
		c0-7.9,0-15.81,0-23.85C844.49,518.17,841.53,518.17,838.18,518.17z"/>
	<path class="st7" d="M774.85,505.07c-3.95-2.93-1.28-6.98-1.48-10.49c-0.03-0.43,3.54-1.56,5.44-1.56
		c121.79-0.08,243.58-0.08,365.38,0c1.9,0,5.47,1.12,5.44,1.56c-0.2,3.5,2.47,7.56-1.49,10.48c-2.17-0.03-4.33-0.07-6.5-0.07
		c-94.78,0-189.56-0.01-284.34,0C829.82,504.99,802.34,505.04,774.85,505.07z"/>
	<path class="st8" d="M774.85,505.07c27.48-0.03,54.97-0.07,82.45-0.07c94.78-0.01,189.56,0,284.34,0c2.16,0,4.33,0.05,6.5,0.07
		c-1.74,0.33-3.47,0.94-5.21,0.94c-120.96,0.04-241.91,0.04-362.87,0C778.33,506,776.59,505.39,774.85,505.07z"/>
	<path class="st7" d="M773.45,573.02c2.04,0,3.82,0,5.61,0c121.61,0,243.21-0.01,364.82,0.06c1.97,0,5.43,0.5,5.62,1.36
		c0.68,2.99,0.34,6.24,0.11,9.37c-0.03,0.45-1.55,1.01-2.43,1.12c-1.48,0.19-2.99,0.06-4.49,0.06c-119.94,0-239.88,0-359.82,0
		C772.16,584.99,772.16,584.99,773.45,573.02z"/>
	<path class="st9" d="M776.84,537.93c-1.72,3-3.59,5.91-5.1,9.01c-1.44,2.94-3.11,4.45-6.79,4.48c-3.76,0.02-5.31-1.69-6.74-4.56
		c-1.53-3.06-3.37-5.97-5.84-8.74c0,7.04,0,14.09,0,21.51c-3.62,0-6.83,0-10.32,0c0-13.73,0-27.32,0-40.89
		c9.11-2.11,10.4-1.54,14.54,6.15c2.65,4.92,5.37,9.8,8.42,15.36c2.91-5.3,5.44-9.91,7.98-14.53c4.66-8.51,4.66-8.51,14.9-7.25
		c0,13.54,0,27.12,0,41.13c-3.09,0-6.29,0-9.9,0c0-7.13,0-14.22,0-21.3C777.61,538.16,777.23,538.04,776.84,537.93z"/>
	<path class="st10" d="M1170.77,518.25c3.56,0,6.51,0,9.9,0c0,13.64,0,27.35,0,41.4c-2.98,0-6.05,0-9.78,0c0-5.36,0-10.74,0-16.38
		c-5.41,0-10.17,0-15.57,0c0,5.42,0,10.81,0,16.45c-3.71,0-6.79,0-10.21,0c0-13.74,0-27.33,0-41.31c3.12,0,6.32,0,10.12,0
		c0,3.69-0.01,7.3,0,10.92c0,1.17-0.43,2.72,0.15,3.43c3.45,4.26,8.25,1.24,12.41,1.82c0.83,0.11,2.74-2.06,2.85-3.29
		C1171,527.16,1170.77,522.99,1170.77,518.25z"/>
	<path class="st11" d="M791.49,560c5.27-13.87,10.09-26.91,15.35-39.78c0.53-1.29,3.63-1.73,5.63-2.17c5.06-1.1,7.55,1.07,9.24,6.09
		c4,11.91,8.73,23.57,13.37,35.87c-2.63,0-4.62-0.23-6.54,0.05c-3.79,0.54-5.65-0.92-6.79-4.59c-0.43-1.41-2.83-2.6-4.56-3.1
		c-1.84-0.53-3.98,0.09-5.94-0.16c-3.87-0.5-6.18,0.68-7.32,4.71c-0.37,1.31-2.54,2.64-4.1,2.97
		C797.45,560.37,794.89,560,791.49,560z M818.21,544.61c-1.61-4.67-3.06-8.86-4.97-14.4c-1.84,5.58-3.22,9.74-4.76,14.4
		C811.89,544.61,814.62,544.61,818.21,544.61z"/>
	<path class="st11" d="M1029.09,560c-2.78,0-4.91-0.22-6.99,0.05c-3.36,0.43-5.44-0.63-6.01-4.12c-0.5-3.04-2.35-4.07-5.32-3.74
		c-1.81,0.2-3.68,0.23-5.48,0c-3.82-0.48-6.23,0.58-7.35,4.66c-0.37,1.32-2.52,2.68-4.08,3.01c-2.37,0.51-4.94,0.13-7.93,0.13
		c0.37-1.41,0.54-2.45,0.91-3.43c4.37-11.66,9-23.23,13.05-35c1.6-4.66,4.88-3.37,7.95-3.57c3.07-0.2,5.51-0.19,6.89,3.73
		C1019.17,534.38,1024.11,546.85,1029.09,560z M1007.26,530.12c-1.85,5.63-3.26,9.89-4.8,14.57c3.63,0,6.39,0,9.74,0
		C1010.63,540.04,1009.18,535.78,1007.26,530.12z"/>
	<path class="st10" d="M907.59,526.23c-5.64,0-11.09-0.01-16.55,0c-2.9,0.01-5.92-0.85-5.97,4.15c-0.05,4.8,2.6,4.47,5.73,4.41
		c3.81-0.07,7.63-0.02,11.82-0.02c0,2.69,0,5.09,0,8.01c-5.46,0-11.04,0-16.48,0c-2.18,8.19-1.63,8.98,5.83,8.99
		c5.13,0,10.26,0,15.7,0c0,2.81,0,5.21,0,7.92c-10.79,0-21.51,0-32.57,0c0-13.71,0-27.29,0-41.27c10.63,0,21.35,0,32.48,0
		C907.59,520.59,907.59,522.98,907.59,526.23z"/>
	<path class="st10" d="M1102.8,518.35c0,2.61,0,4.89,0,7.87c-6.1,0-12.03,0.15-17.94-0.06c-3.32-0.11-4.74,0.71-4.76,4.4
		c-0.02,3.85,1.73,4.39,4.88,4.25c4.12-0.18,8.26-0.04,12.69-0.04c0,2.83,0,5.23,0,8.14c-5.65,0-11.23,0-17.07,0
		c-0.15,1.75-0.22,3.04-0.39,4.31c-0.44,3.41,0.84,4.77,4.44,4.62c5.93-0.25,11.88-0.07,18.08-0.07c0,2.83,0,5.11,0,7.8
		c-10.76,0-21.6,0-32.7,0c0-13.72,0-27.3,0-41.22C1080.85,518.35,1091.58,518.35,1102.8,518.35z"/>
	<path class="st12" d="M949.35,559.99c-3.47,0-6.15,0.27-8.72-0.11c-1.35-0.2-2.96-1.27-3.71-2.43c-2.15-3.35-4.18-6.84-5.77-10.48
		c-1.55-3.53-3.69-4.91-7.79-3.42c0,5.12,0,10.4,0,16.06c-3.62,0-6.82,0-10.32,0c0-13.73,0-27.31,0-41.26c3.26,0,6.47,0,10.19,0
		c0,4.32-0.17,8.45,0.1,12.55c0.08,1.3,1.28,3.56,2.03,3.58c1.51,0.05,3.61-0.71,4.49-1.87c1.99-2.63,3.74-5.56,4.95-8.63
		c1.93-4.89,5.1-6.93,10.27-6.02c1.11,0.2,2.29,0.03,4.3,0.03c-3.3,5.86-6.04,11.31-9.35,16.39c-2.03,3.12-1.9,5.53-0.05,8.6
		C943.15,548.23,945.92,553.71,949.35,559.99z"/>
	<path class="st12" d="M984.75,518.32c1.4,5.15,0.1,9.13-3.34,12.93c-5.67,6.27-10.9,12.93-17.02,20.28c7.34,0,13.69,0,20.44,0
		c0,2.98,0,5.37,0,8.12c-10.97,0-22.01,0-33.16,0c-1.01-4.61-0.48-8.38,2.84-12.04c5.89-6.5,11.29-13.44,17.69-21.15
		c-7.51,0-13.88,0-20.6,0c0-3.03,0-5.42,0-8.15C962.71,518.32,973.76,518.32,984.75,518.32z"/>
	<path class="st9" d="M1139.79,552.22c0,2.28,0,4.39,0,7.77c-8.92,0-17.68,0.33-26.39-0.15c-4.03-0.22-6.43-3.51-6.51-7.65
		c-0.16-8.48-0.23-16.96,0.03-25.43c0.15-5.04,3.17-8.16,8.72-8.47c7.91-0.44,15.87-0.11,24.08-0.11c0,2.66,0,5.06,0,8.04
		c-5.8,0-11.4,0.12-17-0.04c-3.99-0.12-5.83,1.35-5.66,5.52c0.21,5.15,0.22,10.31-0.01,15.46c-0.18,4.04,1.63,5.23,5.38,5.1
		C1128.05,552.08,1133.68,552.22,1139.79,552.22z"/>
	<path class="st11" d="M1064.95,518.41c0,2.68,0,4.96,0,7.82c-4,0-7.74,0-11.8,0c0,11.38,0,22.16,0,33.36c-3.69,0-7.04,0-10.83,0
		c0-10.91,0-21.69,0-33.03c-4.26-0.21-8.13-0.4-12.26-0.6c0-2.59,0-4.86,0-7.55C1041.56,518.41,1053.09,518.41,1064.95,518.41z"/>
	<path class="st10" d="M838.18,518.17c3.35,0,6.3,0,10.04,0c0,8.04,0,15.95,0,23.85c0,9.75,0,9.75,9.7,9.75c3.8,0,7.61,0,11.79,0
		c0,2.74,0,5.14,0,7.88c-10.33,0-20.73,0-31.54,0C838.18,546.01,838.18,532.33,838.18,518.17z"/>
	<path class="st13" d="M818.21,544.61c-3.59,0-6.32,0-9.72,0c1.54-4.66,2.91-8.82,4.76-14.4
		C815.16,535.75,816.6,539.93,818.21,544.61z"/>
	<path class="st13" d="M1007.26,530.12c1.92,5.66,3.36,9.92,4.94,14.57c-3.35,0-6.11,0-9.74,0
		C1004.01,540.01,1005.41,535.75,1007.26,530.12z"/>
</g>
</svg>
